<?xml version="1.0" encoding="utf-8"?>
<!-- Generator: Adobe Illustrator 19.1.0, SVG Export Plug-In . SVG Version: 6.00 Build 0)  -->
<!DOCTYPE svg PUBLIC "-//W3C//DTD SVG 1.1//EN" "http://www.w3.org/Graphics/SVG/1.1/DTD/svg11.dtd">
<svg version="1.1" id="Layer_1" xmlns="http://www.w3.org/2000/svg" xmlns:xlink="http://www.w3.org/1999/xlink" x="0px" y="0px"
	 width="32px" height="32px" viewBox="404.5 280.7 32 32" style="enable-background:new 404.5 280.7 32 32;" xml:space="preserve">
<style type="text/css">
	.st0{fill:#CC0000;}
</style>
<g>
	<g>
		<g>
			<g>
				<g>
					<path class="st0" d="M411.5,299.3c0-0.5,0.2-1,0.6-1.4h-2.2c0-0.4,0.1-0.8,0-1l0,0l-5.5,2.5l3.6,2.9l0,0l0,0h0l0,0
						c0.3-0.3,0.6-0.7,0.9-1.4h3.2C411.7,300.4,411.5,299.9,411.5,299.3z"/>
				</g>
				<g>
					<path class="st0" d="M429.4,299.3c0-0.5-0.2-1-0.6-1.4h2.2c0-0.4-0.1-0.8,0-1l0,0l5.4,2.5l-3.6,2.9l0,0l0,0h0l0,0
						c-0.3-0.3-0.6-0.7-0.9-1.4h-3.2C429.2,300.4,429.4,299.9,429.4,299.3z"/>
				</g>
			</g>
			<path class="st0" d="M426.4,306.3c-0.6-0.4-1.6-0.6-2.7-0.8l-0.2-2.7c-0.9,0.1-2,0.2-3,0.2l0,0h0c0,0,0,0,0,0
				c-1.1,0-2.1-0.1-3-0.2l-0.2,2.7c-1.1,0.2-2.1,0.5-2.7,0.8h-0.1l0,0c0,0,0,0,0,0h0l6,4.8L426.4,306.3L426.4,306.3L426.4,306.3
				l0.1,0L426.4,306.3L426.4,306.3z"/>
		</g>
		<g>
			<g>
				<path class="st0" d="M413.5,293.6c1.3,0.9,3.9,1.5,6.9,1.5s5.6-0.6,6.9-1.5h0v-4c-1.7,0.8-4.2,1.3-6.9,1.3
					c-2.7,0-5.2-0.5-6.9-1.3L413.5,293.6z"/>
				<path class="st0" d="M427.4,299.5c-1.3,0.9-3.9,1.5-6.9,1.5s-5.6-0.6-6.9-1.5l0-4c1.7,0.8,4.2,1.3,6.9,1.3
					c2.7,0,5.2-0.5,6.9-1.3L427.4,299.5z"/>
			</g>
			<path class="st0" d="M427.4,287.8c-1.3,0.9-3.9,1.5-6.9,1.5s-5.6-0.6-6.9-1.5h0v-4c1.3-0.9,3.9-1.5,6.9-1.5s5.6,0.6,6.9,1.5h0
				V287.8L427.4,287.8z"/>
		</g>
	</g>
</g>
</svg>
